<svg xmlns="http://www.w3.org/2000/svg" xmlns:svg="http://www.w3.org/2000/svg" id="Layer_1" width="512" height="512" x="0" y="0" enable-background="new 0 0 512 512" version="1.1" viewBox="0 0 512 512" xml:space="preserve"><metadata id="metadata45"/><g id="g8"><path id="path6" fill="#FFF" d="M150.483,371.684V141.15c0-15.167,9.534-25.133,23.833-25.133h162.5c13.866,0,20.8,6.933,20.8,18.633v2.6 c0,12.133-6.934,18.633-20.8,18.633h-141.7v78.434h109.634c14.3,0,20.8,6.066,20.8,17.767v1.3c0,12.133-6.934,18.633-20.8,18.633 H195.117v84.934h144.3c13.867,0,20.367,6.066,20.367,17.767v2.167c0,12.566-6.5,19.5-20.367,19.5h-165.1 C160.017,396.384,150.483,386.851,150.483,371.684z"/></g><g style="stroke-width:.64453173" id="g1446-4-5" transform="matrix(5.8639898,0,0,5.8639898,-9653.0918,-3338.6848)"><g style="stroke-width:.64453214" id="g1422-7-2" transform="matrix(0.9999989,0,0,0.99999981,279.19167,438.7826)"><g style="stroke-width:.64453214" id="g1418-4-6" transform="translate(-25.731002,-0.1322636)"><g style="stroke-width:.64453214" id="g1416-4-9" transform="translate(-95.250002)"><path style="opacity:1;vector-effect:none;fill:#7574ff;fill-opacity:1;stroke:none;stroke-width:2.55798697;stroke-linecap:butt;stroke-linejoin:miter;stroke-miterlimit:4;stroke-dasharray:none;stroke-dashoffset:0;stroke-opacity:1;paint-order:normal" id="path1414-3-4" d="m 1501.1846,130.70348 h 60.8542 c 7.329,0 13.2292,5.9002 13.2292,13.22916 v 60.85419 c 0,7.32896 -5.9002,13.22917 -13.2292,13.22917 h -60.8542 c -7.3289,0 -13.2292,-5.90021 -13.2292,-13.22917 v -60.85419 c 0,-7.32896 5.9003,-13.22916 13.2292,-13.22916 z"/></g></g></g><path id="circle1424-7-6" d="M 164.92578,228.00977 A 412.60453,412.60453 0 0 0 0,262.94922 V 280 c 0,27.70001 22.30022,50 50,50 h 230 c 27.69978,0 50,-22.29999 50,-50 V 262.70508 A 412.60453,412.60453 0 0 0 164.92578,228.00977 Z" clip-path="none" transform="matrix(0.26458333,0,0,0.26458333,1646.1645,569.35379)" style="opacity:1;vector-effect:none;fill:#6564f9;fill-opacity:1;stroke:none;stroke-width:9.66797638;stroke-linecap:butt;stroke-linejoin:miter;stroke-miterlimit:4;stroke-dasharray:none;stroke-dashoffset:0;stroke-opacity:1;paint-order:normal"/><g style="stroke-width:.64453173" id="g1444-6-7" transform="translate(3.8727857,-0.32524952)"><path style="opacity:1;vector-effect:none;fill:#fff;fill-opacity:1;stroke:none;stroke-width:9.66797638;stroke-linecap:butt;stroke-linejoin:miter;stroke-miterlimit:4;stroke-dasharray:none;stroke-dashoffset:0;stroke-opacity:1;paint-order:normal" id="rect1436-8-4" d="m 3738.9473,951.78516 c -1.0388,0 -2.0511,0.10552 -3.0293,0.30468 -0.9783,0.19916 -1.9225,0.49258 -2.8203,0.8711 -0.449,0.18926 -0.8854,0.40047 -1.3106,0.63086 -0.8503,0.46076 -1.6504,1.00091 -2.3906,1.61132 -3.3312,2.74687 -5.4492,6.90766 -5.4492,11.58204 v 0.91406 133.17378 0.9122 c 0,8.31 6.69,15 15,15 h 104.9082 c 8.31,0 15,-6.69 15,-15 v -0.9122 c 0,-8.31 -6.69,-15 -15,-15 h -88.9942 v -37.3613 h 66.1699 c 8.31,0 15,-6.69 15,-15 v -0.9121 c 0,-8.31 -6.69,-15 -15,-15 h -66.1699 v -34.90038 h 88.9942 c 8.31,0 15,-6.69 15,-15 v -0.91406 c 0,-8.31 -6.69,-15 -15,-15 z" transform="matrix(0.26458334,0,0,0.26458334,682.80626,339.68051)"/></g></g></svg>